<svg xmlns="http://www.w3.org/2000/svg" viewBox="0 0 88.77 88.77"><defs><style>.cls-1{fill:#fff;}.cls-12,.cls-2{fill:none;stroke:#fc0;}.cls-2{stroke-width:1.5px;}.cls-3{font-size:8.4px;}.cls-10,.cls-11,.cls-13,.cls-14,.cls-15,.cls-16,.cls-17,.cls-18,.cls-19,.cls-20,.cls-21,.cls-22,.cls-23,.cls-24,.cls-3,.cls-4,.cls-5,.cls-6,.cls-7,.cls-8,.cls-9{font-family:Optima-ExtraBlack, Optima;font-weight:900;}.cls-4{font-size:8.4px;}.cls-5{font-size:8.4px;}.cls-6{font-size:8.4px;}.cls-7{font-size:8.4px;}.cls-8{font-size:8.4px;}.cls-9{font-size:8.4px;}.cls-10{font-size:8.4px;}.cls-11{font-size:8.4px;}.cls-13{font-size:8.43px;}.cls-14{font-size:8.43px;}.cls-15{font-size:8.43px;}.cls-16{font-size:8.43px;}.cls-17{font-size:8.43px;}.cls-18{font-size:8.43px;}.cls-19{font-size:8.43px;}.cls-20{font-size:8.43px;}.cls-21{font-size:8.43px;}.cls-22{font-size:8.43px;}.cls-23{font-size:8.43px;}.cls-24{font-size:8.43px;}</style></defs><g id="Layer_2" data-name="Layer 2"><g id="Layer_8" data-name="Layer 8"><circle class="cls-1" cx="44.38" cy="44.17" r="43.63"/><path class="cls-2" d="M88,44.38A43.64,43.64,0,1,1,44.38.75,43.64,43.64,0,0,1,88,44.38Z"/><text class="cls-3" transform="matrix(0.83, -0.56, 0.56, 0.83, 23.87, 18.19)">L</text><text class="cls-4" transform="translate(27.74 15.63) rotate(-27.21)">I</text><text class="cls-5" transform="translate(30.38 14.07) rotate(-18.23)">O</text><text class="cls-6" transform="matrix(0.99, -0.11, 0.11, 0.99, 37.18, 11.84)">N</text><text class="cls-7" transform="matrix(1, 0.07, -0.07, 1, 43.65, 11.12)">V</text><text class="cls-8" transform="translate(49.34 11.6) rotate(11.61)">I</text><text class="cls-9" transform="translate(52.39 12.17) rotate(18.38)">L</text><text class="cls-10" transform="matrix(0.9, 0.45, -0.45, 0.9, 56.78, 13.61)">L</text><text class="cls-11" transform="matrix(0.82, 0.57, -0.57, 0.82, 60.92, 15.64)">E</text><path class="cls-12" d="M75.65,44.27A31.39,31.39,0,1,1,44.27,12.88,31.38,31.38,0,0,1,75.65,44.27Z"/><text class="cls-13" transform="matrix(0.63, 0.78, -0.78, 0.63, 10.38, 66.05)">M</text><text class="cls-14" transform="matrix(0.74, 0.67, -0.67, 0.74, 16.11, 72.8)">I</text><text class="cls-15" transform="matrix(0.83, 0.56, -0.56, 0.83, 18.91, 75.45)">D</text><text class="cls-16" transform="translate(25.25 79.66) rotate(23.3)">D</text><text class="cls-17" transform="translate(32.18 82.5) rotate(14.01)">L</text><text class="cls-18" transform="translate(37.4 83.78) rotate(6.1)">E</text><text class="cls-19" transform="translate(45.93 84.33) rotate(-5.88)">S</text><text class="cls-20" transform="translate(51.52 83.74) rotate(-14.69)">C</text><text class="cls-21" transform="translate(58.11 81.99) rotate(-25.12)">H</text><text class="cls-22" transform="translate(65.16 78.62) rotate(-36.58)">O</text><text class="cls-23" transform="translate(71.77 73.61) rotate(-48.35)">O</text><text class="cls-24" transform="matrix(0.53, -0.85, 0.85, 0.53, 77.06, 67.42)">L</text><circle cx="80.88" cy="41.38" r="1.67"/><path d="M65.17,38.8c-.46-.49-.87-1-1.33-1.42s-1-.76-1.44-1.14c-.22.09-.19.2-.09.34.39.54.8,1.06,1.17,1.62a7.41,7.41,0,0,1,1,2,13.73,13.73,0,0,1,.4,1.39c.11.58.13,1.18.19,1.85-.37-.31-.63-.68-1.15-.61.32.74.64,1.43.92,2.14A12,12,0,0,1,65.44,47a7.8,7.8,0,0,1,.28,2.25,10.67,10.67,0,0,1-.26,1.25,8.41,8.41,0,0,1-.3,1c-.22.51-.47,1-.73,1.54a14,14,0,0,0-.33-1.73,10.49,10.49,0,0,0-1.2-2.72c-.15-.2-.28-.5-.66-.53a9.46,9.46,0,0,1-1.08,10.38V57L61,57a4.55,4.55,0,0,1-1.19,2.11,3.33,3.33,0,0,0-.63-2.86V57a5.12,5.12,0,0,1-.78,2.64,10.43,10.43,0,0,1-2.88,3.08,2.14,2.14,0,0,0-.06-1.91c-.35.06-.37.4-.48.62-.5,1-.93,1.93-1.46,2.85A4.47,4.47,0,0,1,51.69,66a7.29,7.29,0,0,1-1.93.69c-.22,0-.43.15-.72.25l.8-1.38a2.19,2.19,0,0,0,.29-1.42A6.82,6.82,0,0,1,47,66.36c.08-.33.15-.59.21-.84,0-.08.08-.17.06-.24a3.37,3.37,0,0,0-.19-.38c-.06.09-.13.18-.18.27a7.19,7.19,0,0,1-1.73,2.39l-.44.37.08-.52a1.92,1.92,0,0,0-.29.15c-.51.38-1,.8-1.55,1.14A3.77,3.77,0,0,1,42,69,2.93,2.93,0,0,0,42,66.35a5.71,5.71,0,0,1-1.75,2.16,4.33,4.33,0,0,0,.15-3.39,3.71,3.71,0,0,0-.31.57,2.59,2.59,0,0,1-1.33,1.59c.12-.8.5-1.54.21-2.33-.89,1.73-1.92,3.31-3.9,4a5.91,5.91,0,0,1-.19-1,4,4,0,0,0-.35-1.51,9.46,9.46,0,0,0-1-1.82c-.49-.69-1.08-1.3-1.62-1.95-.18-.2-.35-.41-.52-.62a.2.2,0,0,0-.37,0,2.61,2.61,0,0,0-.31,1.28c0,.12,0,.24,0,.46a15.87,15.87,0,0,1-1.28-1.38,18.16,18.16,0,0,1-1.36-2.12,13.21,13.21,0,0,1-1-2.61,15.24,15.24,0,0,1-.48-2.91c0-.09-.1-.17-.15-.26-.05.09-.15.17-.15.26,0,.91,0,1.83-.08,2.74a16.48,16.48,0,0,1-.58-1.67,8.6,8.6,0,0,1-.28-2.77c0-.53.07-1.06.14-1.59.06-.37.18-.74.27-1.11a.83.83,0,0,0,0-.27c0-.18-.13-.25-.27-.12a3.89,3.89,0,0,0-1.16,1.69,3.75,3.75,0,0,1-.18.39c-.11-.35-.23-.64-.3-1a12.27,12.27,0,0,1-.3-3.31c0-.48.12-.95.16-1.43a.51.51,0,0,0-.1-.3A14.05,14.05,0,0,0,23,50c-.13-.54-.26-1-.33-1.45-.1-.76-.21-1.51-.24-2.27a10.29,10.29,0,0,1,.13-1.84c.08-.6.26-1.18.38-1.77a.66.66,0,0,0,0-.27l-.12,0-.91,2-.08,0c-.48-2.68.64-4.83,2.37-6.79-.19-.21-.46-.13-.7-.1a4.61,4.61,0,0,0-.73.22,8.51,8.51,0,0,1,3.75-4.52A3.56,3.56,0,0,1,26,31a3.65,3.65,0,0,1,.28-1.61,2.67,2.67,0,0,1,1-1.25,8.34,8.34,0,0,1,1.53-.75,4.75,4.75,0,0,1,1.2-.12c.09-.6-.62-1.33-1.95-2.05a6,6,0,0,1,3.56-.78l.05-.09a2,2,0,0,0-.3-.21A3.29,3.29,0,0,0,29.91,24a2.33,2.33,0,0,1-.48-.13A15.11,15.11,0,0,1,31,23.51a3.74,3.74,0,0,1,1.76.07c.39.15.64.11.71-.14s.08-.39.13-.58a6.88,6.88,0,0,1,1.17-2.19c.3.43.59.86.89,1.28,0,0,.13,0,.2,0a4.08,4.08,0,0,1,1.24-2.42,5.15,5.15,0,0,1,1.49-.94c.47-.19.94-.37,1.45-.54a3.47,3.47,0,0,0-.39,2.5l.87-1.3.11.05a10.08,10.08,0,0,0,.24,1.09,5.11,5.11,0,0,0,.45,1.05,1.39,1.39,0,0,0,.83.72,1.67,1.67,0,0,0,0-.51,2.57,2.57,0,0,1,0-1.53,3.53,3.53,0,0,1,1-1.77,8.71,8.71,0,0,1,.86-.65v.69a2.48,2.48,0,0,0,1,2.07,1.2,1.2,0,0,0,1,.24.4.4,0,0,0,.22-.27c0-.38-.07-.76-.11-1.2,3,0,5.71.81,7.54,3.58a6.27,6.27,0,0,0,1-2.39,10.66,10.66,0,0,1,.44,1.19,6.63,6.63,0,0,1,.14,2,.55.55,0,0,0,0,.18c.07,0,.18,0,.21,0a2.49,2.49,0,0,0,.44-.65c.18-.51.29-1,.43-1.59a2.51,2.51,0,0,1,.44.47,14.56,14.56,0,0,1,.74,1.61,2.37,2.37,0,0,1,.08.92A2.74,2.74,0,0,1,57.38,26a.31.31,0,0,0,0,.24s.16,0,.2,0c.21-.18.52-.27.55-.62,0-.05.1-.09.2-.19l.18,1a4.47,4.47,0,0,0,1.23-2.67,2,2,0,0,1,.61,1,5.2,5.2,0,0,1,.12,1.8,5,5,0,0,1-.15.75,1.42,1.42,0,0,0,1-1.22c.11.22.21.39.29.56a3.36,3.36,0,0,1,.17,1.69,8.77,8.77,0,0,1-.3,1.2,1.11,1.11,0,0,0,0,.26l.34-.05-.29.83a5,5,0,0,1,3.1,4.25c-.3-.16-.61-.32-.92-.46a1.75,1.75,0,0,0-.4-.05c0,.12,0,.27.1.35.26.33.54.64.82,1A4.62,4.62,0,0,1,65,37.11a4.93,4.93,0,0,1,.17,1.52Zm-16,18.43c.06,0,.09-.06.1-.09a7.33,7.33,0,0,0,.34-2.32,4.25,4.25,0,0,1,.06-.88A15,15,0,0,1,51,50.5a.58.58,0,0,0,.08-.31c0-.62-.09-1.24,0-1.85a2.48,2.48,0,0,1,.34-1.12,17,17,0,0,1,1-1.37c.43-.61.82-1.25,1.25-1.87a2.51,2.51,0,0,0,.43-1.73,2.45,2.45,0,0,1,.18-1.18,2.74,2.74,0,0,0,.2-.73,4.76,4.76,0,0,0,0-1.51,7.16,7.16,0,0,0-.54-1.47,3,3,0,0,1-.33-1.75.33.33,0,0,1,.23-.3c.39-.19.77-.4,1.14-.62.09-.06.14-.2.24-.33H53.63l1.74-1.92a2.3,2.3,0,0,1,1.53-.85.22.22,0,0,0,.13-.1s0-.12-.06-.12a6.07,6.07,0,0,0-.84-.12,3.56,3.56,0,0,0-.79.1c-.42.09-.84.2-1.25.33s-.62.22-1,.36c.85-1.17,1.29-2.71.89-3.06-.26.51-.51,1-.78,1.53A2.4,2.4,0,0,1,52,31.64s0-.07,0-.08a1.38,1.38,0,0,1,.14-.27,4.87,4.87,0,0,0,.71-1.79,1.72,1.72,0,0,1,.87-1.21c.54-.27,1.11-.48,1.66-.73a1.49,1.49,0,0,0,.93-1.22,2.84,2.84,0,0,1,.34-1.09c.37-.61.24-.71-.1-1.28a.32.32,0,0,0-.23-.11s-.08.12-.11.19a5.21,5.21,0,0,1-.43.85A4.56,4.56,0,0,1,54,26.11a9.54,9.54,0,0,0-.12-1.52,4.35,4.35,0,0,0-1.23-2.16,10.39,10.39,0,0,0-1.39-1,.72.72,0,0,0-.33-.06,1.07,1.07,0,0,0,0,.32c.2.38.47.72.63,1.11a18.5,18.5,0,0,1,.67,2.07,2.38,2.38,0,0,1-.2,1.48A3.84,3.84,0,0,0,51.57,28a2.07,2.07,0,0,1-.19.91,3.5,3.5,0,0,1-1.86,2c.17-.41.36-.84.52-1.28.1-.28.15-.58.23-.87a5.63,5.63,0,0,0,.25-1.06,17.87,17.87,0,0,0,0-2.07,1.3,1.3,0,0,0-.31-.73,2.56,2.56,0,0,0-.78-.55c-.39-.22-.8-.4-1.2-.6l0-.08,1.75.56s0-.1,0-.13a5.35,5.35,0,0,0-.7-.91A4.71,4.71,0,0,0,47,22.37,15.81,15.81,0,0,1,45.17,22a2.17,2.17,0,0,1-1.58-2c0-.07-.07-.13-.1-.2a.59.59,0,0,0-.18.13,2.84,2.84,0,0,0-.61,1.38,2.51,2.51,0,0,0,.75,2.18,5.28,5.28,0,0,0,2.16,1.16,4,4,0,0,1,1.52,1,4.27,4.27,0,0,1,1,2,3.67,3.67,0,0,1-.08,1.81,3.81,3.81,0,0,1-.78,1.65c-.27.31-.52.64-.77,1l-.07,0c.07-.26.14-.51.2-.77A10.32,10.32,0,0,0,47,29.61a3.7,3.7,0,0,0,0-1.72,7.36,7.36,0,0,0-.36-1.18,3.17,3.17,0,0,0-1.65-1.45c-.86-.33-1.72-.64-2.56-1a5.72,5.72,0,0,1-1.39-.82,2.18,2.18,0,0,1-.7-1.87,1.8,1.8,0,0,0-.07-.38,2.47,2.47,0,0,0-1,2.46,2.8,2.8,0,0,1-.54-1.15A4.21,4.21,0,0,1,39.16,20a.81.81,0,0,0,.05-.27,1,1,0,0,0-.3,0,2.49,2.49,0,0,0-1.33,1.94,3.76,3.76,0,0,0,.09,1.76A5.42,5.42,0,0,0,38.43,25,3.65,3.65,0,0,0,41,26.5a14.65,14.65,0,0,1,2.72.5,3,3,0,0,1,1.48.83,1.31,1.31,0,0,1,.31,1.05c0,.25-.15.49-.22.73a9.67,9.67,0,0,0-.55,1.78,1.63,1.63,0,0,0,.26,1.2,1.44,1.44,0,0,1,.39,1c-.17-.18-.3-.39-.45-.58a3.19,3.19,0,0,0-.26-.26l-.15.32s0,.06,0,.09a2.51,2.51,0,0,0-.3,1.37,4.21,4.21,0,0,1-.09.62H44a10.91,10.91,0,0,1-.28-1.68,2.06,2.06,0,0,0-.47-1.22,2.31,2.31,0,0,0-.69-.76,2.63,2.63,0,0,0-1.15-.27,11.43,11.43,0,0,0-1.42.1,3.05,3.05,0,0,0-1.94.89c-.25.24-.51.54-.26,1,0,.07,0,.27-.12.36s-.39.36-.58.54a9.72,9.72,0,0,0-.83.87,7,7,0,0,0-1,2.28,3.5,3.5,0,0,0-.17,1.47c.12.79.29,1.57.43,2.36.08.46.1.92.19,1.37a11.53,11.53,0,0,0,1.5,3.4,9.2,9.2,0,0,1,1.21,3.49q.27,2.37.48,4.74c.07.86.06,1.72.1,2.59,0,.05,0,.14.07.15a.29.29,0,0,0,.17-.06l.92-.61a4.09,4.09,0,0,0-.68,1.56c-.05.35.1.74.34.8a5.77,5.77,0,0,1,.29-.79,2.81,2.81,0,0,1,.45-.67.93.93,0,0,1,.78-.38c-.16.27-.3.47-.41.69a.68.68,0,0,0-.07.32s.08.1.12.15l.12-.12.77-.74L42,57l-.35.89.06.06,1.15-.54.06.08c-.13.3-.28.6-.4.91a.8.8,0,0,0,0,.31l.11,0,1-.8.12,1.18a2.54,2.54,0,0,0,.77-2,2.86,2.86,0,0,1,.6,1.6c0,.27,0,.54,0,.81a1,1,0,0,0,.09.28,2.77,2.77,0,0,0,1-2.49,1.7,1.7,0,0,1,.77,1.3.75.75,0,0,0,.09.25,1.51,1.51,0,0,0,.22-.11,2.33,2.33,0,0,0,.49-1.18,7.84,7.84,0,0,0,.11-1l.52.92.13,0,.24-1.31.06,0Zm12.54-.66h.1a10.52,10.52,0,0,0,.39-1c.11-.41.18-.83.25-1.25a8.81,8.81,0,0,0,.23-1.68,13.71,13.71,0,0,0-.24-2.21A8.23,8.23,0,0,0,62,48.78a7.49,7.49,0,0,0-.85-1.51,10.34,10.34,0,0,0-1.24-1.4,10.15,10.15,0,0,0-1.43-1.11,6.69,6.69,0,0,0-1.13-.58c-.45-.19-.91-.36-1.37-.52a7.06,7.06,0,0,0-.91-.21c-.1,0-.3,0-.32.12a5.63,5.63,0,0,0-.32,1.06,3.93,3.93,0,0,1-1,2.09A1.5,1.5,0,0,0,53.14,48a.46.46,0,0,1-.28.5c-.58.26-.65.66-.48,1.21a7.84,7.84,0,0,0,.72,1.59c.5.9,1,1.76,1.57,2.65.25.42.47.86.69,1.3s.49,1,.68,1.51.19.93.33,1.38a3.69,3.69,0,0,1-.27,2.47.76.76,0,0,0,0,.26l.11,0c.43-.38.89-.75,1.3-1.16a3.58,3.58,0,0,0,1.08-2.18,3.79,3.79,0,0,0-.49-2.16c-.46-.82-1-1.61-1.48-2.41-.34-.54-.74-1-1-1.61A6.31,6.31,0,0,1,55,49.6a2.32,2.32,0,0,1,.08-1.49l2.12,1A6,6,0,0,1,59,50.35a6.79,6.79,0,0,1,1.7,3.54,11.17,11.17,0,0,1,.1,1.84c0,.16,0,.31.07.46H61a9.4,9.4,0,0,0,.52-3.37,11.16,11.16,0,0,0-.72-3.37,5.38,5.38,0,0,1,.58,1,8.05,8.05,0,0,1,.55,2.46,10.63,10.63,0,0,1-.21,3.42A.59.59,0,0,0,61.76,56.57ZM37.22,66.9a2.28,2.28,0,0,0,.58-1.43,5.47,5.47,0,0,0-.48-2.67c-.19-.51-.5-1-.66-1.51a12.39,12.39,0,0,1-.79-2.62,4.75,4.75,0,0,1,.25-2.19,5.66,5.66,0,0,1,1.18-1.77.58.58,0,0,0,.07-.21c-.08,0-.17-.09-.24-.07s-.21.13-.33.16a2.14,2.14,0,0,0-1.4,1.24c-.16.32-.3.65-.45,1a1.87,1.87,0,0,1,0-1.65,9.45,9.45,0,0,1,.75-1.49,3.67,3.67,0,0,0,.48-2.41,1.66,1.66,0,0,0-.34.23,12.91,12.91,0,0,1-1.34,1.42,6.36,6.36,0,0,0-2.06,2.59c-.12.29-.12.63-.23.93a2,2,0,0,0-.11,1.19,3.12,3.12,0,0,1,.13.59A3.67,3.67,0,0,0,32.89,60c.47.77,1,1.51,1.54,2.23s1,1.21,1.45,1.84A5.53,5.53,0,0,1,37,66.11C37,66.37,37.13,66.61,37.22,66.9Zm-6.95-6.36.18,0c-.06-.23-.1-.46-.16-.69a6.82,6.82,0,0,1-.38-1.51A9.11,9.11,0,0,1,30,56a5.88,5.88,0,0,1,.76-1.8,10.17,10.17,0,0,1,2.2-2.29c.65-.53,1.31-1.05,1.94-1.61a3.45,3.45,0,0,0,1.06-1.33,13.15,13.15,0,0,0,.39-1.26,1.74,1.74,0,0,0,.06-.51c0-.08-.1-.16-.14-.21-.32.5-.59,1-.92,1.41a9.06,9.06,0,0,1-2.69,2.19,8.56,8.56,0,0,0-2,1.53c-.29.31-.56.65-.84,1l-.07,0,.59-1.2a3.85,3.85,0,0,1,1.24-1.36c.85-.59,1.73-1.13,2.54-1.77a3.42,3.42,0,0,0,1.12-1.93c.11-.49.13-1,.2-1.51-.21.08-.21.08-.45.63a7,7,0,0,1-2.52,2.92c-.6.44-1.29.75-1.91,1.16a5.41,5.41,0,0,0-1.94,2.56c-.15.36-.13.78-.28,1.14a3.17,3.17,0,0,0-.1,1.26c0,.33.1.66.12,1a5.24,5.24,0,0,0,.53,1.9c.14.35.29.69.46,1C29.63,59.41,30,60,30.27,60.54ZM33.05,39c-.15.14-.29.3-.46.43a8.23,8.23,0,0,1-2.09,1.06c-.74.29-1.46.61-2.17,1a8.8,8.8,0,0,0-1.53.93A2.4,2.4,0,0,0,25.72,44a2.09,2.09,0,0,1-.24.73c-.37.7-.79,1.38-1.13,2.09a2,2,0,0,0-.15.95,4,4,0,0,0,.25,1.12c.07.21.09.53.44.53,0-.42,0-.83.1-1.24a3.27,3.27,0,0,1,.81-1.78,7.55,7.55,0,0,1,2.68-1.7c.74-.31,1.49-.58,2.23-.9a5.16,5.16,0,0,0,2.43-2,6.34,6.34,0,0,0,.52-1.38c0-.06-.06-.16-.09-.24a.59.59,0,0,0-.18.13,5.06,5.06,0,0,1-1.65,1.54,6.26,6.26,0,0,1-1.13.47c-.3.09-.62.08-.93.14s-.65.15-1,.23l-.37.09,0-.12,2-1.12c.68-.38,1.37-.74,2-1.13a2.29,2.29,0,0,0,.84-1C33.23,39.2,33.26,39.05,33.05,39Zm-6.64,1.84a4.22,4.22,0,0,1,1.53-1.58,9.12,9.12,0,0,1,2.85-1,15.22,15.22,0,0,0,2-.57A3.1,3.1,0,0,0,34.72,36c.09-.21.31-.43.1-.72a2.1,2.1,0,0,0-.22.15,4.19,4.19,0,0,1-2.37,1c-1.25.18-2.52,0-3.79.18a4.75,4.75,0,0,0-2.63,1,5.83,5.83,0,0,0-1.69,2.69c-.12.36-.2.72-.29,1.09s-.18.88-.27,1.32a2.45,2.45,0,0,1-.08.29.49.49,0,0,0,.05.54c.4-.74.79-1.49,1.2-2.22a5.2,5.2,0,0,1,1.71-1.84A1.86,1.86,0,0,0,26.41,40.82Zm36.28,3.91a7.13,7.13,0,0,0-2.21-1.53,7.27,7.27,0,0,0-1.29-.44c-.43-.1-.88-.12-1.32-.21a6.38,6.38,0,0,0-2.18,0c-.07,0-.13.12-.19.18a.8.8,0,0,0,.21.13c.39.09.79.17,1.18.27s.56.15.84.22a9,9,0,0,1,1.05.28,18.3,18.3,0,0,1,1.72.85,6.35,6.35,0,0,1,2.25,2.09,5,5,0,0,1,.82,1.82c0,.14.14.25.23.41a3.1,3.1,0,0,0,.55-1.66,5.07,5.07,0,0,0-.42-2.66,9.18,9.18,0,0,0-.66-1.24,5,5,0,0,0-1.69-1.52,4.71,4.71,0,0,0-2.2-.66,11.58,11.58,0,0,0-3.11.25c-.14,0-.3.08-.18.28C58.61,41.3,61.69,42.56,62.69,44.73ZM33.82,43l-.36.25a8.61,8.61,0,0,1-1.14.79c-.66.34-1.37.6-2.05.89a5.46,5.46,0,0,0-2.59,2.25,3.16,3.16,0,0,0-.53,2,4.13,4.13,0,0,0,0,.5,8.19,8.19,0,0,0,.35.94s.13.07.19,0a.2.2,0,0,0,.13-.14c.07-.28.13-.57.19-.85a2.26,2.26,0,0,1,1.39-1.58c.74-.34,1.55-.51,2.31-.79A4,4,0,0,0,33.42,46a5,5,0,0,0,1-2.07.62.62,0,0,0-.3.22A4.33,4.33,0,0,1,31.27,46l-1.08.29-1,.29,0-.06a8.14,8.14,0,0,1,1.08-.8A19.94,19.94,0,0,1,32.1,45a3.14,3.14,0,0,0,1.62-1.29C33.84,43.51,34,43.29,33.82,43ZM57,34.28a2,2,0,0,0,.36,0c.23-.1.44-.24.67-.34a3.24,3.24,0,0,0,1.46-1.25,4,4,0,0,0,.64-1.28A3.27,3.27,0,0,0,60.23,30a3,3,0,0,0-.83-1.63,3,3,0,0,0-1.24-.57,2.72,2.72,0,0,0-1.65.07,2.34,2.34,0,0,0-1.45,1.17,2.83,2.83,0,0,0-.13.44l.43,0h.06a3.25,3.25,0,0,1,2,0,1.44,1.44,0,0,1,1,1.47,5.53,5.53,0,0,1-.11.9,3.33,3.33,0,0,1-.66,1.47C57.5,33.67,57.3,33.93,57,34.28ZM51.65,59.85a2.57,2.57,0,0,1,.06.35,8.47,8.47,0,0,1-.41,3.27,8.6,8.6,0,0,1-.93,1.78l-.08.18a.6.6,0,0,0,.21.08,1.85,1.85,0,0,0,1.25-.43,5.52,5.52,0,0,0,1.6-1.7c.36-.59.62-1.26.93-1.88a4.07,4.07,0,0,0,.41-1.78c0-.3,0-.6,0-.9a2.49,2.49,0,0,0-.44-1.52c-.15-.24-.23-.58-.65-.66A6.37,6.37,0,0,1,53.71,60a7.39,7.39,0,0,1-1.3,3,3.28,3.28,0,0,0,.1-.69,5.38,5.38,0,0,0-.46-2.17C52,60,52,59.7,51.65,59.85ZM63,40.24a2.94,2.94,0,0,0-.22-.44,4.16,4.16,0,0,0-2.42-1.49,5.3,5.3,0,0,0-2.34.08,8.42,8.42,0,0,0-1.85.78c-.06,0-.08.14-.11.22a1.38,1.38,0,0,0,.2,0,2.18,2.18,0,0,1,.25,0,9.63,9.63,0,0,1,3,.54,10.64,10.64,0,0,1,1.83.88l1,.64.08-.08a4.84,4.84,0,0,0-1.22-1.75C61.85,39.67,62.31,40.14,63,40.24ZM55.5,48.77c0,.16,0,.24,0,.29.2.44.4.87.63,1.29a18.54,18.54,0,0,0,1.92,2.49,6.41,6.41,0,0,1,1.16,2.3,7.64,7.64,0,0,0,.29.83c.11-.21.24-.35.25-.5a6.27,6.27,0,0,0-.66-3.61,7.12,7.12,0,0,0-2.8-2.75C56.06,49,55.8,48.9,55.5,48.77ZM35.73,66.67l.11-.07a5.15,5.15,0,0,0-.57-2,17.34,17.34,0,0,0-1.21-2c-.48-.72-1-1.4-1.48-2.12A3.61,3.61,0,0,1,32,59.35c-.15-.77-.19-1.56-.27-2.34a2.79,2.79,0,0,1,0-.39c-.11.12-.2.17-.21.24a6.66,6.66,0,0,0-.35,2,4,4,0,0,0,.24,1.46,9,9,0,0,0,.84,1.48c.54.78,1.15,1.51,1.71,2.27s1,1.41,1.46,2.12ZM29.94,29.38a.7.7,0,0,0-.28-.19,3.61,3.61,0,0,0-.73-.07,1.68,1.68,0,0,0-.64.08A2.07,2.07,0,0,0,27,31.11,3.22,3.22,0,0,0,27.47,33a2.73,2.73,0,0,0,1.22,1.18,6,6,0,0,0,1.12.4,1.32,1.32,0,0,0,1-.11l-.19-.1a13.5,13.5,0,0,1-1.2-.76,2.21,2.21,0,0,1-.83-1.27,2.09,2.09,0,0,1-.07-1.29,2.29,2.29,0,0,1,.44-1C29.27,29.85,29.6,29.64,29.94,29.38ZM51.3,52.3a1.33,1.33,0,0,0-.44,1,3.69,3.69,0,0,0,.22,1.19c.25.63.58,1.24.85,1.86a10.31,10.31,0,0,1,.63,1.59,11.45,11.45,0,0,1,.14,1.55c0,.15.07.3.1.45h.1a4.85,4.85,0,0,0,.34-1.19,6.61,6.61,0,0,0-.08-2.08,8.86,8.86,0,0,0-.92-2,16,16,0,0,1-.73-1.5A4.92,4.92,0,0,1,51.3,52.3ZM30.55,30h.37a3.85,3.85,0,0,1,2,.43c.51.24,1,.49,1.57.69a2.26,2.26,0,0,0,.92.16,2.92,2.92,0,0,0,1.76-.94.7.7,0,0,0,.15-.23l0-.08a6,6,0,0,1-.83.15,5.92,5.92,0,0,1-2.21-.23c-.55-.2-1.14-.31-1.7-.5a1.77,1.77,0,0,0-1.11-.07C31.13,29.48,30.76,29.54,30.55,30ZM43.32,66.77l.07.08a1,1,0,0,0,.32-.13,12,12,0,0,0,.89-.86,5.25,5.25,0,0,0,1.26-2.44,2.43,2.43,0,0,0,0-1.68c0-.08-.05-.23-.09-.23a.38.38,0,0,0-.27.09,2.92,2.92,0,0,0-.88,1.45c-.06.24-.09.48-.16.72s-.21.58-.27.88a4.86,4.86,0,0,1-.77,1.9ZM62.54,38.64l.08-.09a3.47,3.47,0,0,0-.37-.59,4.77,4.77,0,0,0-2.73-1.52,4.2,4.2,0,0,0-2.08.08,3.4,3.4,0,0,0-1.18.65,1.44,1.44,0,0,0-.18.25l0,.09a8.64,8.64,0,0,1,3.36-.1A7,7,0,0,1,62.54,38.64ZM40.89,29.36l0-.11a9.77,9.77,0,0,1-3.34-1.08,11.59,11.59,0,0,1-2.75-2.42c0,.13-.09.22-.06.27a7.42,7.42,0,0,0,.45.89,7,7,0,0,0,1.54,1.72,4.44,4.44,0,0,0,1.92.89,10.17,10.17,0,0,0,2,0C40.71,29.54,40.8,29.42,40.89,29.36Zm-16.4,7.1,1.39-.72a6.52,6.52,0,0,1,.82-.35,5.31,5.31,0,0,1,.88-.19c.41-.06.83-.09,1.24-.14a1.16,1.16,0,0,0,.27-.14,8.86,8.86,0,0,0-.93-.71,1.88,1.88,0,0,0-1.88-.05,4.05,4.05,0,0,0-1.7,1.8C24.5,36.09,24.26,36.29,24.49,36.46ZM28,51.58c-.08.09-.17.14-.2.23-.12.3-.19.61-.32.91a3.53,3.53,0,0,0-.28,1.57,18.56,18.56,0,0,0,.14,2.48A10.07,10.07,0,0,0,28,58.72c.08.23.19.48.52.53-.22-1.26-.55-2.49-.64-3.74S27.92,52.93,28,51.58ZM39.2,63.71a3,3,0,0,0,.58-3.38c-.31-.71-1.58-1.82-2.12-1.72a1.25,1.25,0,0,0,.15.28c.17.21.38.41.55.63a3.34,3.34,0,0,1,.81,1.95c-.3-.13-.52-.47-1-.29A4.45,4.45,0,0,1,39.2,63.71Zm2.09-36.22v.09c.25.18.5.34.73.54a2.3,2.3,0,0,1,.88,1.24c.06.31.08.62.12.93,0,.08,0,.22.1.23a.44.44,0,0,0,.31-.06c.08-.05.13-.16.2-.24.26.25.1.56.09.87.1-.05.21-.07.27-.14a1.8,1.8,0,0,0,.1-2.22,3.73,3.73,0,0,0-2.45-1.29A1.16,1.16,0,0,0,41.29,27.49Zm9.82-2.74.1-.05a2.43,2.43,0,0,0,0-.66,12.12,12.12,0,0,0-.41-1.15,4.08,4.08,0,0,0-2.92-2.63,2.91,2.91,0,0,0-.78,0l-.08.13A7.07,7.07,0,0,1,51.11,24.75Zm-1.3,35a1.1,1.1,0,0,0-.08.19,3.83,3.83,0,0,1-.3,1.41,6,6,0,0,1-1.72,2.61c-.07.05-.09.15-.14.23.11,0,.22.09.31.06a2.87,2.87,0,0,0,1.22-.7,3.87,3.87,0,0,0,1-1.88,4.08,4.08,0,0,0-.05-1.6C50.06,59.92,49.93,59.83,49.81,59.7ZM58.5,34.65a2.2,2.2,0,0,0-2,1.1c-.1.14-.06.34.17.3a8.52,8.52,0,0,0,.87-.22,4.17,4.17,0,0,1,1.16-.28A2.25,2.25,0,0,1,60,36a.6.6,0,0,0,.19.06c0-.07,0-.16,0-.21A2.37,2.37,0,0,0,58.5,34.65ZM30.61,25a.63.63,0,0,0,.15.11,13.08,13.08,0,0,1,1.25.6,4.56,4.56,0,0,1,1.83,2.05,3.31,3.31,0,0,0,.35.51l.1-.07a5.49,5.49,0,0,1-.24-.68,4.38,4.38,0,0,0-.89-1.76,2.75,2.75,0,0,0-1.89-1A.66.66,0,0,0,30.61,25Zm5,8.28a1.82,1.82,0,0,0-.28.11,6.7,6.7,0,0,1-.78.53,10.1,10.1,0,0,1-1.39.61c-.43.14-.89.18-1.33.28a.29.29,0,0,0-.2.16.27.27,0,0,0,.11.2,2.31,2.31,0,0,0,.89.21,4.15,4.15,0,0,0,1.87-.73A2.58,2.58,0,0,0,35.61,33.25ZM34.5,32.8a7.75,7.75,0,0,0,1.06-.24,2.42,2.42,0,0,0,.58-.38s0-.14,0-.21A.62.62,0,0,0,36,32a4.25,4.25,0,0,1-2.87-.32.25.25,0,0,0-.22,0,.19.19,0,0,0,0,.19c.1.17.2.4.36.47A13.17,13.17,0,0,0,34.5,32.8Zm.22-10.5c-.45.35-.36.77-.38,1.16a2.38,2.38,0,0,0,1.2,2.29.48.48,0,0,0,.23,0,10.38,10.38,0,0,1-.83-1.57,6.76,6.76,0,0,1-.16-1.44C34.77,22.62,34.75,22.49,34.72,22.3Zm6.42,41.84c.11,0,.17,0,.2,0,.47-.32.94-.64,1.37-1a.72.72,0,0,0,.12-.88c0-.13-.17-.26-.33-.09s-.53.6-.78.9A2.29,2.29,0,0,0,41.14,64.14Zm-8.39-36.9a1.82,1.82,0,0,0-.65-1c-.71-.62-1.69-.92-2-.69Zm-2.27,0c.06.05.08.09.11.09a2.87,2.87,0,0,1,1.19.51c.29.19.55.43.83.64a.25.25,0,0,0,.22,0,.24.24,0,0,0,.05-.23,2.34,2.34,0,0,0-.24-.44,2,2,0,0,0-1.29-.72A.91.91,0,0,0,30.48,27.27ZM43.74,63.73a.34.34,0,0,0-.08.09l-.74,1.26c-.09.15-.2.3-.28.46s0,.16,0,.19a.21.21,0,0,0,.19,0,1.89,1.89,0,0,0,1-.84A1.51,1.51,0,0,0,43.74,63.73Zm-6.7-37c-.1.43.29.57.49.76a1.4,1.4,0,0,0,1.32.37l0-.09ZM35.83,24a5.31,5.31,0,0,0-.21-.7c0-.06-.15-.07-.23-.1a.86.86,0,0,0,0,.23,2.08,2.08,0,0,0,0,.23A.37.37,0,0,0,35.83,24Z"/><path class="cls-1" d="M49.22,57.23l-.42-1.09-.06,0-.24,1.31-.13,0-.52-.92a7.84,7.84,0,0,1-.11,1,2.33,2.33,0,0,1-.49,1.18,1.51,1.51,0,0,1-.22.11.75.75,0,0,1-.09-.25,1.7,1.7,0,0,0-.77-1.3,2.77,2.77,0,0,1-1,2.49,1,1,0,0,1-.09-.28c0-.27,0-.54,0-.81a2.86,2.86,0,0,0-.6-1.6,2.54,2.54,0,0,1-.77,2L43.58,58l-1,.8-.11,0a.8.8,0,0,1,0-.31c.12-.31.27-.61.4-.91l-.06-.08L41.71,58l-.06-.06L42,57,41.88,57l-.77.74-.12.12s-.12-.1-.12-.15a.68.68,0,0,1,.07-.32c.11-.22.25-.42.41-.69a.93.93,0,0,0-.78.38,2.81,2.81,0,0,0-.45.67,5.77,5.77,0,0,0-.29.79c-.24-.06-.39-.45-.34-.8a4.09,4.09,0,0,1,.68-1.56l-.92.61a.29.29,0,0,1-.17.06s-.07-.1-.07-.15c0-.87,0-1.73-.1-2.59q-.21-2.37-.48-4.74a9.2,9.2,0,0,0-1.21-3.49,11.53,11.53,0,0,1-1.5-3.4c-.09-.45-.11-.91-.19-1.37-.14-.79-.31-1.57-.43-2.36a3.5,3.5,0,0,1,.17-1.47,7,7,0,0,1,1-2.28,9.72,9.72,0,0,1,.83-.87c.19-.18.41-.35.58-.54s.16-.29.12-.36c-.25-.42,0-.72.26-1A3.05,3.05,0,0,1,40,31.34a11.43,11.43,0,0,1,1.42-.1,2.63,2.63,0,0,1,1.15.27,2.31,2.31,0,0,1,.69.76,2.06,2.06,0,0,1,.47,1.22A10.91,10.91,0,0,0,44,35.17h.1a4.21,4.21,0,0,0,.09-.62,2.51,2.51,0,0,1,.3-1.37s0-.06,0-.09l.15-.32a3.19,3.19,0,0,1,.26.26c.15.19.28.4.45.58a1.44,1.44,0,0,0-.39-1,1.63,1.63,0,0,1-.26-1.2,9.67,9.67,0,0,1,.55-1.78c.07-.24.17-.48.22-.73a1.31,1.31,0,0,0-.31-1.05A3,3,0,0,0,43.71,27,14.65,14.65,0,0,0,41,26.5,3.65,3.65,0,0,1,38.43,25a5.42,5.42,0,0,1-.76-1.61,3.76,3.76,0,0,1-.09-1.76,2.49,2.49,0,0,1,1.33-1.94,1,1,0,0,1,.3,0,.81.81,0,0,1-.05.27,4.21,4.21,0,0,0-.32,2.52,2.8,2.8,0,0,0,.54,1.15,2.47,2.47,0,0,1,1-2.46,1.8,1.8,0,0,1,.07.38,2.18,2.18,0,0,0,.7,1.87,5.72,5.72,0,0,0,1.39.82c.84.37,1.7.68,2.56,1a3.17,3.17,0,0,1,1.65,1.45,7.36,7.36,0,0,1,.36,1.18,3.7,3.7,0,0,1,0,1.72,10.32,10.32,0,0,1-.39,1.62c-.06.26-.13.51-.2.77l.07,0c.25-.32.5-.65.77-1a3.81,3.81,0,0,0,.78-1.65,3.67,3.67,0,0,0,.08-1.81,4.27,4.27,0,0,0-1-2,4,4,0,0,0-1.52-1,5.28,5.28,0,0,1-2.16-1.16,2.51,2.51,0,0,1-.75-2.18,2.84,2.84,0,0,1,.61-1.38.59.59,0,0,1,.18-.13c0,.07.09.13.1.2a2.17,2.17,0,0,0,1.58,2,15.81,15.81,0,0,0,1.81.41,4.71,4.71,0,0,1,2.32.88,5.35,5.35,0,0,1,.7.91s0,.09,0,.13l-1.75-.56,0,.08c.4.2.81.38,1.2.6a2.56,2.56,0,0,1,.78.55,1.3,1.3,0,0,1,.31.73,17.87,17.87,0,0,1,0,2.07,5.63,5.63,0,0,1-.25,1.06c-.08.29-.13.59-.23.87-.16.44-.35.87-.52,1.28a3.5,3.5,0,0,0,1.86-2,2.07,2.07,0,0,0,.19-.91A3.84,3.84,0,0,1,52,26.39a2.38,2.38,0,0,0,.2-1.48,18.5,18.5,0,0,0-.67-2.07c-.16-.39-.43-.73-.63-1.11a1.07,1.07,0,0,1,0-.32.72.72,0,0,1,.33.06,10.39,10.39,0,0,1,1.39,1,4.35,4.35,0,0,1,1.23,2.16A9.54,9.54,0,0,1,54,26.11a4.56,4.56,0,0,0,1.79-1.21,5.21,5.21,0,0,0,.43-.85c0-.07.08-.19.11-.19a.32.32,0,0,1,.23.11c.34.57.47.67.1,1.28a2.84,2.84,0,0,0-.34,1.09,1.49,1.49,0,0,1-.93,1.22c-.55.25-1.12.46-1.66.73a1.72,1.72,0,0,0-.87,1.21,4.87,4.87,0,0,1-.71,1.79,1.38,1.38,0,0,0-.14.27s0,0,0,.08a2.4,2.4,0,0,0,1.22-1.13c.27-.5.52-1,.78-1.53.4.35,0,1.89-.89,3.06.38-.14.68-.27,1-.36s.83-.24,1.25-.33a3.56,3.56,0,0,1,.79-.1,6.07,6.07,0,0,1,.84.12s.08.1.06.12a.22.22,0,0,1-.13.1,2.3,2.3,0,0,0-1.53.85l-1.74,1.92h1.58c-.1.13-.15.27-.24.33-.37.22-.75.43-1.14.62a.33.33,0,0,0-.23.3,3,3,0,0,0,.33,1.75,7.16,7.16,0,0,1,.54,1.47,4.76,4.76,0,0,1,0,1.51,2.74,2.74,0,0,1-.2.73,2.45,2.45,0,0,0-.18,1.18A2.51,2.51,0,0,1,53.62,44c-.43.62-.82,1.26-1.25,1.87a17,17,0,0,0-1,1.37A2.48,2.48,0,0,0,51,48.34c0,.61,0,1.23,0,1.85a.58.58,0,0,1-.08.31,15,15,0,0,0-1.24,3.44,4.25,4.25,0,0,0-.06.88,7.33,7.33,0,0,1-.34,2.32S49.28,57.18,49.22,57.23ZM43,37.13V37l-1.63-.29.22-.16c.38-.2.77-.38,1.16-.59a.71.71,0,0,0,.44-.61.59.59,0,0,0-.42-.57,4.16,4.16,0,0,0-.79-.2.32.32,0,0,0,.16.15.62.62,0,0,1,.43.61c0,.25-.3.44-.64.47h-.12a11.13,11.13,0,0,1-1.41-.2,5.87,5.87,0,0,1-2.3-1,.39.39,0,0,0-.35,0,6.12,6.12,0,0,0-.84.6c-.54.47-.46.91.16,1.25a5,5,0,0,0,1.77.47l.88.12-.32.23c-.25.18-.5.35-.73.55a8.75,8.75,0,0,0-1.79,2.6,4.43,4.43,0,0,0-.32,3.24,2.32,2.32,0,0,0,1.73,1.82,1.15,1.15,0,0,1,.87.78,7.52,7.52,0,0,1,.41,1.51c.12,1,.18,2,.21,3a9.68,9.68,0,0,0,.87,3.67,1.1,1.1,0,0,0,1.1.76A5.29,5.29,0,0,0,43,54.9a5.2,5.2,0,0,1,2.76-.24c.61.14,1.22.35,1.84.46a1.23,1.23,0,0,0,1.56-.85c.24-.6.38-1.24.59-1.85a13.79,13.79,0,0,0,.28-2.93,17.27,17.27,0,0,1,.41-3,1.41,1.41,0,0,1,1-1.11,1.47,1.47,0,0,0,.75-.36,8.59,8.59,0,0,0,.91-1.32,2.86,2.86,0,0,0,.18-2.59A15.32,15.32,0,0,0,52.1,39a6.93,6.93,0,0,0-.93-1.17,9.45,9.45,0,0,0-1-.76s.09-.1.14-.11c.36,0,.73-.07,1.09-.13A3.56,3.56,0,0,0,53,36.26a.7.7,0,0,0,0-1,5.85,5.85,0,0,0-.54-.45c-.55-.37-.55-.37-1.11,0h0a6.29,6.29,0,0,1-2.43.91,4.5,4.5,0,0,1-1.32,0c-.12,0-.27-.21-.32-.36s0-.35.22-.44.33-.2.5-.3a4.15,4.15,0,0,0-.87.13.61.61,0,0,0-.23,1.09,2.46,2.46,0,0,0,.39.22l1.12.56,0,.12-.51.07-.57.1-.47.13,0,.09A5.08,5.08,0,0,1,50.7,38a11.26,11.26,0,0,1-1.15.07c-.37,0-.74.08-1.11.13a7.77,7.77,0,0,1,3.1.62l-2.25.28v.11a7.22,7.22,0,0,0,.93,0,1.88,1.88,0,0,1,1.93,1.21A5.67,5.67,0,0,1,52.51,43a1.72,1.72,0,0,1-.76,1.33,3.32,3.32,0,0,1-3,.33,10,10,0,0,0-2.22-.46,1.62,1.62,0,0,1-.69-.19.81.81,0,0,1-.5-.72.68.68,0,0,1,.39-.64,4.54,4.54,0,0,1,.61-.24,1.78,1.78,0,0,0,1.4-1.36c-.72.64-1.24.93-1.59.89.11-.36.11-.36-.12-.74A1.47,1.47,0,0,1,46,41a.58.58,0,0,1,.26-.73,4.53,4.53,0,0,1,.87-.25.55.55,0,0,1,.41.13.58.58,0,0,0,.74.16c.36-.18.37-.36.06-.62A1.5,1.5,0,0,0,47,39.44a7.36,7.36,0,0,1-2.27.39c-.68-.07-1.34-.27-2-.39a1.34,1.34,0,0,0-1.35.37c-.06.08-.13.24-.09.32.11.32.68.35.92.1a.67.67,0,0,1,.45-.19,2.27,2.27,0,0,1,.76.21c.48.21.59.54.3,1a.73.73,0,0,0-.08.83,4.83,4.83,0,0,1-1.64-.9,1.56,1.56,0,0,0,1,1.11c.35.16.72.27,1.06.43a.63.63,0,0,1,.4.6,1.12,1.12,0,0,1-1.07,1,6.38,6.38,0,0,0-2.12.4,3.88,3.88,0,0,1-2.45.09,1.93,1.93,0,0,1-1.41-1.31,3.3,3.3,0,0,1-.07-1.56,3.54,3.54,0,0,1,.79-2.13,1.73,1.73,0,0,1,1.26-.55c.37,0,.74,0,1.12.06v-.11a12.61,12.61,0,0,0-2.13-.34,6.26,6.26,0,0,1,2.86-.56v-.09L39.09,38v-.09A5.41,5.41,0,0,1,43,37.13Z"/><path class="cls-1" d="M61.76,56.57a.59.59,0,0,1,0-.22,10.63,10.63,0,0,0,.21-3.42,8.05,8.05,0,0,0-.55-2.46,5.38,5.38,0,0,0-.58-1,11.16,11.16,0,0,1,.72,3.37A9.4,9.4,0,0,1,61,56.2h-.14c0-.15-.06-.3-.07-.46a11.17,11.17,0,0,0-.1-1.84A6.79,6.79,0,0,0,59,50.35a6,6,0,0,0-1.8-1.29l-2.12-1A2.32,2.32,0,0,0,55,49.6a6.31,6.31,0,0,0,.62,1.77c.28.56.68,1.07,1,1.61.5.8,1,1.59,1.48,2.41a3.79,3.79,0,0,1,.49,2.16,3.58,3.58,0,0,1-1.08,2.18c-.41.41-.87.78-1.3,1.16l-.11,0a.76.76,0,0,1,0-.26,3.69,3.69,0,0,0,.27-2.47c-.14-.45-.17-.94-.33-1.38s-.44-1-.68-1.51-.44-.88-.69-1.3c-.52-.89-1.07-1.75-1.57-2.65a7.84,7.84,0,0,1-.72-1.59c-.17-.55-.1-1,.48-1.21a.46.46,0,0,0,.28-.5,1.5,1.5,0,0,1,.31-1.27,3.93,3.93,0,0,0,1-2.09,5.63,5.63,0,0,1,.32-1.06c0-.08.22-.14.32-.12a7.06,7.06,0,0,1,.91.21c.46.16.92.33,1.37.52a6.69,6.69,0,0,1,1.13.58,10.15,10.15,0,0,1,1.43,1.11,10.34,10.34,0,0,1,1.24,1.4A7.49,7.49,0,0,1,62,48.78a8.23,8.23,0,0,1,.47,1.68,13.71,13.71,0,0,1,.24,2.21,8.81,8.81,0,0,1-.23,1.68c-.07.42-.14.84-.25,1.25a10.52,10.52,0,0,1-.39,1Z"/><path class="cls-1" d="M37.22,66.9c-.09-.29-.19-.53-.25-.79a5.53,5.53,0,0,0-1.09-2.06c-.46-.63-1-1.21-1.45-1.84S33.36,60.75,32.89,60a3.67,3.67,0,0,1-.66-1.77,3.12,3.12,0,0,0-.13-.59,2,2,0,0,1,.11-1.19c.11-.3.11-.64.23-.93a6.36,6.36,0,0,1,2.06-2.59,12.91,12.91,0,0,0,1.34-1.42,1.66,1.66,0,0,1,.34-.23,3.67,3.67,0,0,1-.48,2.41A9.45,9.45,0,0,0,35,55.16a1.87,1.87,0,0,0,0,1.65c.15-.33.29-.66.45-1a2.14,2.14,0,0,1,1.4-1.24c.12,0,.21-.13.33-.16s.16,0,.24.07a.58.58,0,0,1-.07.21,5.66,5.66,0,0,0-1.18,1.77,4.75,4.75,0,0,0-.25,2.19,12.39,12.39,0,0,0,.79,2.62c.16.52.47,1,.66,1.51a5.47,5.47,0,0,1,.48,2.67A2.28,2.28,0,0,1,37.22,66.9Z"/><path class="cls-1" d="M30.27,60.54c-.32-.56-.64-1.13-.95-1.7-.17-.33-.32-.67-.46-1a5.24,5.24,0,0,1-.53-1.9c0-.33-.12-.66-.12-1a3.17,3.17,0,0,1,.1-1.26c.15-.36.13-.78.28-1.14A5.41,5.41,0,0,1,30.53,50c.62-.41,1.31-.72,1.91-1.16A7,7,0,0,0,35,45.89c.24-.55.24-.55.45-.63-.07.51-.09,1-.2,1.51a3.42,3.42,0,0,1-1.12,1.93c-.81.64-1.69,1.18-2.54,1.77a3.85,3.85,0,0,0-1.24,1.36L29.72,53l.07,0c.28-.32.55-.66.84-1a8.56,8.56,0,0,1,2-1.53,9.06,9.06,0,0,0,2.69-2.19c.33-.43.6-.91.92-1.41,0,0,.13.13.14.21a1.74,1.74,0,0,1-.06.51,13.15,13.15,0,0,1-.39,1.26,3.45,3.45,0,0,1-1.06,1.33c-.63.56-1.29,1.08-1.94,1.61a10.17,10.17,0,0,0-2.2,2.29A5.88,5.88,0,0,0,30,56a9.11,9.11,0,0,0-.07,2.33,6.82,6.82,0,0,0,.38,1.51c.06.23.1.46.16.69Z"/><path class="cls-1" d="M33.05,39c.21.07.18.22.11.37a2.29,2.29,0,0,1-.84,1c-.67.39-1.36.75-2,1.13l-2,1.12,0,.12.37-.09c.33-.08.65-.17,1-.23s.63-.05.93-.14a6.26,6.26,0,0,0,1.13-.47,5.06,5.06,0,0,0,1.65-1.54.59.59,0,0,1,.18-.13c0,.08.11.18.09.24a6.34,6.34,0,0,1-.52,1.38,5.16,5.16,0,0,1-2.43,2c-.74.32-1.49.59-2.23.9a7.55,7.55,0,0,0-2.68,1.7A3.27,3.27,0,0,0,25,48.21c-.06.41-.07.82-.1,1.24-.35,0-.37-.32-.44-.53a4,4,0,0,1-.25-1.12,2,2,0,0,1,.15-.95c.34-.71.76-1.39,1.13-2.09a2.09,2.09,0,0,0,.24-.73,2.4,2.4,0,0,1,1.08-1.67,8.8,8.8,0,0,1,1.53-.93c.71-.35,1.43-.67,2.17-1a8.23,8.23,0,0,0,2.09-1.06C32.76,39.28,32.9,39.12,33.05,39Z"/><path class="cls-1" d="M26.41,40.82a1.86,1.86,0,0,1,0-1.41,5.2,5.2,0,0,0-1.71,1.84c-.41.73-.8,1.48-1.2,2.22a.49.49,0,0,1-.05-.54,2.45,2.45,0,0,0,.08-.29c.09-.44.17-.88.27-1.32s.17-.73.29-1.09a5.83,5.83,0,0,1,1.69-2.69,4.75,4.75,0,0,1,2.63-1c1.27-.15,2.54,0,3.79-.18a4.19,4.19,0,0,0,2.37-1,2.1,2.1,0,0,1,.22-.15c.21.29,0,.51-.1.72a3.1,3.1,0,0,1-1.9,1.71,15.22,15.22,0,0,1-2,.57,9.12,9.12,0,0,0-2.85,1A4.22,4.22,0,0,0,26.41,40.82Z"/><path class="cls-1" d="M62.69,44.73c-1-2.17-4.08-3.43-6.6-3.18-.12-.2,0-.24.18-.28A11.58,11.58,0,0,1,59.38,41a4.71,4.71,0,0,1,2.2.66,5,5,0,0,1,1.69,1.52,9.18,9.18,0,0,1,.66,1.24,5.07,5.07,0,0,1,.42,2.66,3.1,3.1,0,0,1-.55,1.66c-.09-.16-.21-.27-.23-.41a5,5,0,0,0-.82-1.82,6.35,6.35,0,0,0-2.25-2.09,18.3,18.3,0,0,0-1.72-.85,9,9,0,0,0-1.05-.28c-.28-.07-.56-.16-.84-.22s-.79-.18-1.18-.27a.8.8,0,0,1-.21-.13c.06-.06.12-.17.19-.18a6.38,6.38,0,0,1,2.18,0c.44.09.89.11,1.32.21a7.27,7.27,0,0,1,1.29.44A7.13,7.13,0,0,1,62.69,44.73Z"/><path class="cls-1" d="M33.82,43c.22.3,0,.52-.1.72A3.14,3.14,0,0,1,32.1,45a19.94,19.94,0,0,0-1.85.76,8.14,8.14,0,0,0-1.08.8l0,.06,1-.29L31.27,46a4.33,4.33,0,0,0,2.83-1.87.62.62,0,0,1,.3-.22,5,5,0,0,1-1,2.07,4,4,0,0,1-1.7,1.24c-.76.28-1.57.45-2.31.79A2.26,2.26,0,0,0,28,49.63c-.06.28-.12.57-.19.85a.2.2,0,0,1-.13.14c-.06,0-.18,0-.19,0a8.19,8.19,0,0,1-.35-.94,4.13,4.13,0,0,1,0-.5,3.16,3.16,0,0,1,.53-2,5.46,5.46,0,0,1,2.59-2.25c.68-.29,1.39-.55,2.05-.89a8.61,8.61,0,0,0,1.14-.79Z"/><path class="cls-1" d="M57,34.28c.26-.35.46-.61.65-.88a3.33,3.33,0,0,0,.66-1.47,5.53,5.53,0,0,0,.11-.9,1.44,1.44,0,0,0-1-1.47,3.25,3.25,0,0,0-2,0h-.06l-.43,0a2.83,2.83,0,0,1,.13-.44,2.34,2.34,0,0,1,1.45-1.17,2.72,2.72,0,0,1,1.65-.07,3,3,0,0,1,1.24.57A3,3,0,0,1,60.23,30a3.27,3.27,0,0,1-.06,1.33,4,4,0,0,1-.64,1.28,3.24,3.24,0,0,1-1.46,1.25c-.23.1-.44.24-.67.34A2,2,0,0,1,57,34.28Z"/><path class="cls-1" d="M51.65,59.85c.33-.15.34.16.4.29a5.38,5.38,0,0,1,.46,2.17,3.28,3.28,0,0,1-.1.69,7.39,7.39,0,0,0,1.3-3,6.37,6.37,0,0,0-.11-3.38c.42.08.5.42.65.66a2.49,2.49,0,0,1,.44,1.52c0,.3,0,.6,0,.9a4.07,4.07,0,0,1-.41,1.78c-.31.62-.57,1.29-.93,1.88a5.52,5.52,0,0,1-1.6,1.7,1.85,1.85,0,0,1-1.25.43.6.6,0,0,1-.21-.08l.08-.18a8.6,8.6,0,0,0,.93-1.78,8.47,8.47,0,0,0,.41-3.27A2.57,2.57,0,0,0,51.65,59.85Z"/><path class="cls-1" d="M63,40.24c-.7-.1-1.16-.57-1.82-.6a4.84,4.84,0,0,1,1.22,1.75l-.08.08-1-.64A10.64,10.64,0,0,0,59.52,40a9.63,9.63,0,0,0-3-.54,2.18,2.18,0,0,0-.25,0,1.38,1.38,0,0,1-.2,0c0-.08,0-.19.11-.22A8.42,8.42,0,0,1,58,38.39a5.3,5.3,0,0,1,2.34-.08,4.16,4.16,0,0,1,2.42,1.49A2.94,2.94,0,0,1,63,40.24Z"/><path class="cls-1" d="M55.5,48.77c.3.13.56.21.8.34a7.12,7.12,0,0,1,2.8,2.75,6.27,6.27,0,0,1,.66,3.61c0,.15-.14.29-.25.5a7.64,7.64,0,0,1-.29-.83,6.41,6.41,0,0,0-1.16-2.3,18.54,18.54,0,0,1-1.92-2.49c-.23-.42-.43-.85-.63-1.29C55.48,49,55.5,48.93,55.5,48.77Z"/><path class="cls-1" d="M35.73,66.67l-.32-.45c-.49-.71-1-1.43-1.46-2.12s-1.17-1.49-1.71-2.27a9,9,0,0,1-.84-1.48,4,4,0,0,1-.24-1.46,6.66,6.66,0,0,1,.35-2c0-.07.1-.12.21-.24a2.79,2.79,0,0,0,0,.39c.08.78.12,1.57.27,2.34a3.61,3.61,0,0,0,.56,1.19c.47.72,1,1.4,1.48,2.12a17.34,17.34,0,0,1,1.21,2,5.15,5.15,0,0,1,.57,2Z"/><path class="cls-1" d="M29.94,29.38c-.34.26-.67.47-1,.73a2.29,2.29,0,0,0-.44,1,2.09,2.09,0,0,0,.07,1.29,2.21,2.21,0,0,0,.83,1.27,13.5,13.5,0,0,0,1.2.76l.19.1a1.32,1.32,0,0,1-1,.11,6,6,0,0,1-1.12-.4A2.73,2.73,0,0,1,27.47,33,3.22,3.22,0,0,1,27,31.11a2.07,2.07,0,0,1,1.26-1.91,1.68,1.68,0,0,1,.64-.08,3.61,3.61,0,0,1,.73.07A.7.7,0,0,1,29.94,29.38Z"/><path class="cls-1" d="M51.3,52.3a4.92,4.92,0,0,0,.21.86,16,16,0,0,0,.73,1.5,8.86,8.86,0,0,1,.92,2,6.61,6.61,0,0,1,.08,2.08,4.85,4.85,0,0,1-.34,1.19h-.1c0-.15-.08-.3-.1-.45a11.45,11.45,0,0,0-.14-1.55,10.31,10.31,0,0,0-.63-1.59c-.27-.62-.6-1.23-.85-1.86a3.69,3.69,0,0,1-.22-1.19A1.33,1.33,0,0,1,51.3,52.3Z"/><path class="cls-1" d="M30.55,30c.21-.44.58-.5.9-.62a1.77,1.77,0,0,1,1.11.07c.56.19,1.15.3,1.7.5a5.92,5.92,0,0,0,2.21.23A6,6,0,0,0,37.3,30l0,.08a.7.7,0,0,1-.15.23,2.92,2.92,0,0,1-1.76.94,2.26,2.26,0,0,1-.92-.16c-.53-.2-1.06-.45-1.57-.69a3.85,3.85,0,0,0-2-.43Z"/><path class="cls-1" d="M43.32,66.77l.12-.22a4.86,4.86,0,0,0,.77-1.9c.06-.3.19-.59.27-.88s.1-.48.16-.72a2.92,2.92,0,0,1,.88-1.45.38.38,0,0,1,.27-.09s.06.15.09.23a2.43,2.43,0,0,1,0,1.68,5.25,5.25,0,0,1-1.26,2.44,12,12,0,0,1-.89.86,1,1,0,0,1-.32.13Z"/><path class="cls-1" d="M62.54,38.64a7,7,0,0,0-3.06-1.23,8.64,8.64,0,0,0-3.36.1l0-.09a1.44,1.44,0,0,1,.18-.25,3.4,3.4,0,0,1,1.18-.65,4.2,4.2,0,0,1,2.08-.08A4.77,4.77,0,0,1,62.25,38a3.47,3.47,0,0,1,.37.59Z"/><path class="cls-1" d="M40.89,29.36c-.09.06-.18.18-.28.18a10.17,10.17,0,0,1-2,0,4.44,4.44,0,0,1-1.92-.89,7,7,0,0,1-1.54-1.72,7.42,7.42,0,0,1-.45-.89c0-.05,0-.14.06-.27a11.59,11.59,0,0,0,2.75,2.42,9.77,9.77,0,0,0,3.34,1.08Z"/><path class="cls-1" d="M24.49,36.46c-.23-.17,0-.37.09-.5a4.05,4.05,0,0,1,1.7-1.8,1.88,1.88,0,0,1,1.88.05,8.86,8.86,0,0,1,.93.71,1.16,1.16,0,0,1-.27.14c-.41,0-.83.08-1.24.14a5.31,5.31,0,0,0-.88.19,6.52,6.52,0,0,0-.82.35Z"/><path class="cls-1" d="M28,51.58c0,1.35-.18,2.65-.09,3.93s.42,2.48.64,3.74c-.33,0-.44-.3-.52-.53a10.07,10.07,0,0,1-.69-1.95,18.56,18.56,0,0,1-.14-2.48,3.53,3.53,0,0,1,.28-1.57c.13-.3.2-.61.32-.91C27.79,51.72,27.88,51.67,28,51.58Z"/><path class="cls-1" d="M39.2,63.71a4.45,4.45,0,0,0-1-2.53c.43-.18.65.16,1,.29a3.34,3.34,0,0,0-.81-1.95c-.17-.22-.38-.42-.55-.63a1.25,1.25,0,0,1-.15-.28c.54-.1,1.81,1,2.12,1.72A3,3,0,0,1,39.2,63.71Z"/><path class="cls-1" d="M41.29,27.49a1.16,1.16,0,0,1,.36,0,3.73,3.73,0,0,1,2.45,1.29A1.8,1.8,0,0,1,44,31c-.06.07-.17.09-.27.14,0-.31.17-.62-.09-.87-.07.08-.12.19-.2.24a.44.44,0,0,1-.31.06c-.05,0-.09-.15-.1-.23,0-.31-.06-.62-.12-.93A2.3,2.3,0,0,0,42,28.12c-.23-.2-.48-.36-.73-.54Z"/><path class="cls-1" d="M51.11,24.75A7.07,7.07,0,0,0,47,20.38l.08-.13a2.91,2.91,0,0,1,.78,0,4.08,4.08,0,0,1,2.92,2.63A12.12,12.12,0,0,1,51.2,24a2.43,2.43,0,0,1,0,.66Z"/><path class="cls-1" d="M49.81,59.7c.12.13.25.22.27.32a4.08,4.08,0,0,1,.05,1.6,3.87,3.87,0,0,1-1,1.88,2.87,2.87,0,0,1-1.22.7c-.09,0-.2,0-.31-.06,0-.08.07-.18.14-.23a6,6,0,0,0,1.72-2.61,3.83,3.83,0,0,0,.3-1.41A1.1,1.1,0,0,1,49.81,59.7Z"/><path class="cls-1" d="M58.5,34.65a2.37,2.37,0,0,1,1.65,1.17s0,.14,0,.21A.6.6,0,0,1,60,36a2.25,2.25,0,0,0-1.23-.42,4.17,4.17,0,0,0-1.16.28,8.52,8.52,0,0,1-.87.22c-.23,0-.27-.16-.17-.3A2.2,2.2,0,0,1,58.5,34.65Z"/><path class="cls-1" d="M30.61,25a.66.66,0,0,1,.66-.26,2.75,2.75,0,0,1,1.89,1,4.38,4.38,0,0,1,.89,1.76,5.49,5.49,0,0,0,.24.68l-.1.07a3.31,3.31,0,0,1-.35-.51A4.56,4.56,0,0,0,32,25.68a13.08,13.08,0,0,0-1.25-.6A.63.63,0,0,1,30.61,25Z"/><path class="cls-1" d="M35.61,33.25a2.58,2.58,0,0,1-1.11,1.37,4.15,4.15,0,0,1-1.87.73,2.31,2.31,0,0,1-.89-.21.27.27,0,0,1-.11-.2.29.29,0,0,1,.2-.16c.44-.1.9-.14,1.33-.28a10.1,10.1,0,0,0,1.39-.61,6.7,6.7,0,0,0,.78-.53A1.82,1.82,0,0,1,35.61,33.25Z"/><path class="cls-1" d="M34.5,32.8a13.17,13.17,0,0,1-1.27-.48c-.16-.07-.26-.3-.36-.47a.19.19,0,0,1,0-.19.25.25,0,0,1,.22,0A4.25,4.25,0,0,0,36,32a.62.62,0,0,1,.19,0c0,.07,0,.18,0,.21a2.42,2.42,0,0,1-.58.38A7.75,7.75,0,0,1,34.5,32.8Z"/><path class="cls-1" d="M34.72,22.3c0,.19.05.32.06.46a6.76,6.76,0,0,0,.16,1.44,10.38,10.38,0,0,0,.83,1.57.48.48,0,0,1-.23,0,2.38,2.38,0,0,1-1.2-2.29C34.36,23.07,34.27,22.65,34.72,22.3Z"/><path class="cls-1" d="M41.14,64.14a2.29,2.29,0,0,1,.58-1.06c.25-.3.51-.61.78-.9s.28,0,.33.09a.72.72,0,0,1-.12.88c-.43.36-.9.68-1.37,1C41.31,64.17,41.25,64.15,41.14,64.14Z"/><path class="cls-1" d="M32.75,27.24l-2.69-1.71c.35-.23,1.33.07,2,.69A1.82,1.82,0,0,1,32.75,27.24Z"/><path class="cls-1" d="M30.48,27.27a.91.91,0,0,1,.87-.12,2,2,0,0,1,1.29.72,2.34,2.34,0,0,1,.24.44.24.24,0,0,1-.05.23.25.25,0,0,1-.22,0c-.28-.21-.54-.45-.83-.64a2.87,2.87,0,0,0-1.19-.51S30.54,27.32,30.48,27.27Z"/><path class="cls-1" d="M43.74,63.73a1.51,1.51,0,0,1,.07,1.16,1.89,1.89,0,0,1-1,.84.21.21,0,0,1-.19,0s0-.14,0-.19.19-.31.28-.46l.74-1.26A.34.34,0,0,1,43.74,63.73Z"/><path class="cls-1" d="M37,26.77l1.86,1,0,.09a1.4,1.4,0,0,1-1.32-.37C37.33,27.34,36.94,27.2,37,26.77Z"/><path class="cls-1" d="M35.83,24a.37.37,0,0,1-.43-.34,2.08,2.08,0,0,1,0-.23.86.86,0,0,1,0-.23c.08,0,.21,0,.23.1A5.31,5.31,0,0,1,35.83,24Z"/><path d="M43,37.13a5.41,5.41,0,0,0-3.89.78V38l2.08.14v.09a6.26,6.26,0,0,0-2.86.56,12.61,12.61,0,0,1,2.13.34v.11c-.38,0-.75-.06-1.12-.06a1.73,1.73,0,0,0-1.26.55,3.54,3.54,0,0,0-.79,2.13,3.3,3.3,0,0,0,.07,1.56,1.93,1.93,0,0,0,1.41,1.31,3.88,3.88,0,0,0,2.45-.09,6.38,6.38,0,0,1,2.12-.4,1.12,1.12,0,0,0,1.07-1,.63.63,0,0,0-.4-.6c-.34-.16-.71-.27-1.06-.43a1.56,1.56,0,0,1-1-1.11,4.83,4.83,0,0,0,1.64.9.73.73,0,0,1,.08-.83c.29-.43.18-.76-.3-1a2.27,2.27,0,0,0-.76-.21.67.67,0,0,0-.45.19c-.24.25-.81.22-.92-.1,0-.08,0-.24.09-.32a1.34,1.34,0,0,1,1.35-.37c.68.12,1.34.32,2,.39A7.36,7.36,0,0,0,47,39.44a1.5,1.5,0,0,1,1.32.27c.31.26.3.44-.06.62a.58.58,0,0,1-.74-.16.55.55,0,0,0-.41-.13,4.53,4.53,0,0,0-.87.25A.58.58,0,0,0,46,41a1.47,1.47,0,0,0,.1.22c.23.38.23.38.12.74.35,0,.87-.25,1.59-.89a1.78,1.78,0,0,1-1.4,1.36,4.54,4.54,0,0,0-.61.24.68.68,0,0,0-.39.64.81.81,0,0,0,.5.72,1.62,1.62,0,0,0,.69.19,10,10,0,0,1,2.22.46,3.32,3.32,0,0,0,3-.33A1.72,1.72,0,0,0,52.51,43a5.67,5.67,0,0,0-.36-2.64,1.88,1.88,0,0,0-1.93-1.21,7.21,7.21,0,0,1-.93,0v-.11l2.25-.28a7.77,7.77,0,0,0-3.1-.62c.37,0,.74-.11,1.11-.13A11.26,11.26,0,0,0,50.7,38a5.08,5.08,0,0,0-3.87-.85l0-.09.47-.13.57-.1.51-.07,0-.12-1.12-.56a2.46,2.46,0,0,1-.39-.22.61.61,0,0,1,.23-1.09,4.15,4.15,0,0,1,.87-.13c-.17.1-.33.22-.5.3s-.3.26-.22.44.2.34.32.36a4.5,4.5,0,0,0,1.32,0,6.29,6.29,0,0,0,2.43-.91h0c.56-.38.56-.38,1.11,0a5.85,5.85,0,0,1,.54.45.7.7,0,0,1,0,1,3.56,3.56,0,0,1-1.53.54c-.36.06-.73.08-1.09.13-.05,0-.09.07-.14.11a9.45,9.45,0,0,1,1,.76A6.93,6.93,0,0,1,52.1,39a15.32,15.32,0,0,1,1.2,2.17,2.86,2.86,0,0,1-.18,2.59,8.59,8.59,0,0,1-.91,1.32,1.47,1.47,0,0,1-.75.36,1.41,1.41,0,0,0-1,1.11,17.27,17.27,0,0,0-.41,3,13.79,13.79,0,0,1-.28,2.93c-.21.61-.35,1.25-.59,1.85a1.23,1.23,0,0,1-1.56.85c-.62-.11-1.23-.32-1.84-.46A5.2,5.2,0,0,0,43,54.9a5.29,5.29,0,0,1-1.32.23,1.1,1.1,0,0,1-1.1-.76,9.68,9.68,0,0,1-.87-3.67c0-1-.09-2-.21-3a7.52,7.52,0,0,0-.41-1.51,1.15,1.15,0,0,0-.87-.78,2.32,2.32,0,0,1-1.73-1.82,4.43,4.43,0,0,1,.32-3.24,8.75,8.75,0,0,1,1.79-2.6c.23-.2.48-.37.73-.55l.32-.23-.88-.12A5,5,0,0,1,37,36.39c-.62-.34-.7-.78-.16-1.25a6.12,6.12,0,0,1,.84-.6.39.39,0,0,1,.35,0,5.87,5.87,0,0,0,2.3,1,11.13,11.13,0,0,0,1.41.2h.12c.34,0,.63-.22.64-.47a.62.62,0,0,0-.43-.61.32.32,0,0,1-.16-.15,4.16,4.16,0,0,1,.79.2.59.59,0,0,1,.42.57.71.71,0,0,1-.44.61c-.39.21-.78.39-1.16.59l-.22.16L43,37Zm5,11.65a1.25,1.25,0,0,0,.24-.15,4.93,4.93,0,0,0,1-2.78c0-.23-.1-.32-.29-.35-1-.17-2-.4-3-.5a14.49,14.49,0,0,0-5,.47c-.41.11-.44.14-.39.55a4.67,4.67,0,0,0,1,2.57,1.81,1.81,0,0,0,.25.19.57.57,0,0,0,.07-.12c.13-.92.27-1.84.4-2.77.07-.42.18-.46.51-.2s.45.26.74-.06c0-.05.22-.09.23-.07.2.28.4.22.6,0,.18.16.35.39.44,0,0,0,.2,0,.21,0,.07.21.14.31.32.08a.2.2,0,0,1,.21,0c.17.17.32.1.45,0s.18-.13.29,0c.29.34.38.35.73.08a1.88,1.88,0,0,1,.18-.12c.16-.1.25,0,.29.13s.17.63.22,1C47.79,47.35,47.86,48,48,48.78ZM41.64,51a.71.71,0,0,0-.09.15,4,4,0,0,0-.06,2.11.78.78,0,0,0,.91.71l.61,0c.84,0,1.67,0,2.51,0,.65,0,1.3.06,1.95.06a.72.72,0,0,0,.81-.66,5.31,5.31,0,0,0,.11-.8A3.1,3.1,0,0,0,48.16,51c-.06,0-.11.08-.13.12-.19.37-.35.77-.57,1.12a9.5,9.5,0,0,1-.81,1.08c-.07.09-.3.15-.36.1-.34-.27-.72.1-1-.09l-.05,0a.48.48,0,0,1-.62,0c-.07,0-.21-.07-.24,0-.23.27-.4.11-.56-.09-.07,0-.14.06-.17.11-.16.25-.36.17-.47,0-.38-.51-.73-1-1.07-1.57A8.48,8.48,0,0,1,41.64,51Zm7.67-14.87a1.14,1.14,0,0,0,1.8.27.67.67,0,0,0,.09-.48c0-.06-.25-.08-.41-.13,0,.37-.21.57-.5.51a2.93,2.93,0,0,1-.68-.41Zm-9.16-.25-.09,0c-.56.55-.64.54-1.13,0a.23.23,0,0,0-.21-.06c-.07,0-.17.11-.18.18a.7.7,0,0,0,.1.34,1.1,1.1,0,0,0,1.81-.2Z"/><path class="cls-1" d="M48,48.78c-.1-.75-.17-1.43-.27-2.11,0-.33-.15-.64-.22-1s-.13-.23-.29-.13a1.88,1.88,0,0,0-.18.12c-.35.27-.44.26-.73-.08-.11-.14-.18-.13-.29,0s-.28.21-.45,0a.2.2,0,0,0-.21,0c-.18.23-.25.13-.32-.08,0,0-.21,0-.21,0-.09.42-.26.19-.44,0-.2.21-.4.27-.6,0,0,0-.18,0-.23.07-.29.32-.4.34-.74.06s-.44-.22-.51.2c-.13.93-.27,1.85-.4,2.77a.57.57,0,0,1-.07.12,1.81,1.81,0,0,1-.25-.19,4.67,4.67,0,0,1-1-2.57c0-.41,0-.44.39-.55a14.49,14.49,0,0,1,5-.47c1,.1,2,.33,3,.5.19,0,.31.12.29.35a4.93,4.93,0,0,1-1,2.78A1.25,1.25,0,0,1,48,48.78Z"/><path class="cls-1" d="M41.64,51a8.48,8.48,0,0,0,.42.8c.34.54.69,1.06,1.07,1.57.11.17.31.25.47,0,0,0,.1-.07.17-.11.16.2.33.36.56.09,0,0,.17,0,.24,0a.48.48,0,0,0,.62,0l.05,0c.33.19.71-.18,1,.09.06,0,.29,0,.36-.1a9.5,9.5,0,0,0,.81-1.08c.22-.35.38-.75.57-1.12,0,0,.07-.07.13-.12a3.1,3.1,0,0,1,.23,1.46,5.31,5.31,0,0,1-.11.8.72.72,0,0,1-.81.66c-.65,0-1.3-.06-1.95-.06-.84,0-1.67,0-2.51,0l-.61,0a.78.78,0,0,1-.91-.71,4,4,0,0,1,.06-2.11A.71.71,0,0,1,41.64,51Z"/><path class="cls-1" d="M49.31,36.12l.3-.24a2.93,2.93,0,0,0,.68.41c.29.06.48-.14.5-.51.16,0,.4.07.41.13a.67.67,0,0,1-.09.48A1.14,1.14,0,0,1,49.31,36.12Z"/><path class="cls-1" d="M40.15,35.87l.3.26a1.1,1.1,0,0,1-1.81.2.7.7,0,0,1-.1-.34c0-.07.11-.15.18-.18a.23.23,0,0,1,.21.06c.49.58.57.59,1.13,0Z"/></g></g></svg>